<?xml version="1.0" encoding="UTF-8"?>
<svg id="Layer_2" data-name="Layer 2" xmlns="http://www.w3.org/2000/svg" width="261.069" height="115.023" viewBox="0 0 261.069 115.023">
  <defs>
    <style>
      .cls-1 {
        fill: #fff;
      }
    </style>
  </defs>
  <g id="Layer_1-2" data-name="Layer 1">
    <path d="m108.822,112.57c-20.684,3.172-66.053,3.172-91.288.552-5.654-5.24-14.342-18.341-17.375-25.649C-.117,68.995-.117,40.588.848,24.454,6.088,19.627,18.085,5.562,23.739,2.942c19.72-1.655,58.469-4.964,80.808-1.241,8.136,6.068,16.134,16.961,22.201,25.511,1.241,16.272,2.483,52.677.828,62.744-6.343,7.446-11.721,15.445-18.754,22.615Z"/>
    <path d="m228.8,57.963c8.274,18.202,21.788,31.027,30.889,47.437-9.791,3.447-32.82,5.24-41.231,5.516-13.238-15.307-23.856-31.854-28.131-36.681,0,0-4.413-2.345-4.413,1.931.138,7.446.552,22.891-.276,32.268-5.791,2.483-34.75,3.586-41.231,2.345-2.758-26.063.276-88.944.827-104.389,10.205-1.655,36.267-.827,41.094-.413-.551,9.653-1.379,22.891.551,33.647.414,2.482,3.172,3.309,6.343-.69,5.929-7.446,19.995-26.201,27.028-35.991,11.997-.551,27.856,3.172,40.818,5.654-5.654,8.412-23.443,34.75-32.268,49.368Z"/>
    <path class="cls-1" d="m78.761,30.659c-11.308.414-19.72-.138-29.097,3.723-3.034,5.654-2.069,44.679-1.792,52.953,8.963,3.861,25.373,1.793,31.854-3.309.413-14.893,1.654-34.199-.965-53.367Z"/>
  </g>
</svg>