<?xml version="1.0" encoding="UTF-8"?>
<svg id="Layer_2" data-name="Layer 2" xmlns="http://www.w3.org/2000/svg" width="212.364" height="130.287" viewBox="0 0 212.364 130.287">
  <defs>
    <style>
      .cls-1 {
        fill: #fff;
      }
    </style>
  </defs>
  <g id="Layer_1-2" data-name="Layer 1">
    <path d="m67.495,4.938c4.468-3.057,8.467-4.233,14.816-4.233,11.288,0,18.578,4.468,18.578,15.286,0,20.225,0,80.9-3.763,99.714-1.646,10.112-7.996,13.875-19.99,13.875-11.759,0-12.699-6.114-13.876-22.812-9.171-15.756-17.873-31.278-27.28-46.33,0,16.933-.471,40.685-2.352,53.62-1.175,10.112-7.525,15.286-19.049,15.286-5.409,0-9.642-1.646-10.818-5.409,0-15.992-.47-58.324-.47-90.307C1.41,27.985,0,21.165,0,16.697,0,7.526,10.348.706,28.456.706c8.701,0,12.934,1.881,15.286,5.409,5.173,7.055,17.638,30.338,23.518,41.156,0-14.11.235-36.217.235-42.332Z"/>
    <path d="m170.268,0c24.224,0,42.096,17.638,42.096,54.561,0,42.566-14.815,75.726-52.444,75.726-29.162,0-46.329-12.465-46.329-56.913,0-30.338,7.29-46.094,20.93-54.796C142.047,4.704,156.393,0,170.268,0Z"/>
    <path class="cls-1" d="m154.511,31.043c-1.881,9.407-2.116,27.516-2.116,34.336,0,29.397,4.233,34.1,19.049,36.922,3.056-14.346,3.762-29.867,3.762-36.922,0-22.342-6.585-29.868-20.695-34.336Z"/>
  </g>
</svg>